<svg width="24" height="24" viewBox="0 0 24 24" fill="none" xmlns="http://www.w3.org/2000/svg">
<path d="M11.209 8.53994C11.209 7.98994 10.759 7.53994 10.209 7.53994H3.20898C2.65898 7.53994 2.20898 7.98994 2.20898 8.53994C2.20898 9.08994 2.65898 9.53994 3.20898 9.53994H10.209C10.759 9.53994 11.209 9.08994 11.209 8.53994ZM11.209 16.5399C11.209 15.9899 10.759 15.5399 10.209 15.5399H3.20898C2.65898 15.5399 2.20898 15.9899 2.20898 16.5399C2.20898 17.0899 2.65898 17.5399 3.20898 17.5399H10.209C10.759 17.5399 11.209 17.0899 11.209 16.5399ZM17.259 10.8299C16.869 11.2199 16.239 11.2199 15.849 10.8299L13.729 8.70994C13.339 8.31994 13.339 7.68994 13.729 7.29994C14.119 6.90994 14.749 6.90994 15.139 7.29994L16.549 8.70994L20.089 5.16994C20.479 4.77994 21.109 4.77994 21.499 5.16994C21.889 5.55994 21.889 6.18994 21.499 6.57994L17.259 10.8299ZM17.259 18.8299C16.869 19.2199 16.239 19.2199 15.849 18.8299L13.729 16.7099C13.339 16.3199 13.339 15.6899 13.729 15.2999C14.119 14.9099 14.749 14.9099 15.139 15.2999L16.549 16.7099L20.089 13.1699C20.479 12.7799 21.109 12.7799 21.499 13.1699C21.889 13.5599 21.889 14.1899 21.499 14.5799L17.259 18.8299Z" fill="#BBBFC6"/>
</svg>
