<svg width="24" height="24" viewBox="0 0 24 24" fill="none" xmlns="http://www.w3.org/2000/svg">
<path d="M21.7961 8.53122C21.7961 7.98122 21.3461 7.53122 20.7961 7.53122H13.7961C13.2461 7.53122 12.7961 7.98122 12.7961 8.53122C12.7961 9.08122 13.2461 9.53122 13.7961 9.53122H20.7961C21.3461 9.53122 21.7961 9.08122 21.7961 8.53122ZM12.7961 16.5312C12.7961 17.0812 13.2461 17.5312 13.7961 17.5312H20.7961C21.3461 17.5312 21.7961 17.0812 21.7961 16.5312C21.7961 15.9812 21.3461 15.5312 20.7961 15.5312H13.7961C13.2461 15.5312 12.7961 15.9812 12.7961 16.5312ZM10.2661 5.16122C10.6561 5.55122 10.6561 6.18122 10.2661 6.57122L6.03611 10.8212C5.64611 11.2112 5.01611 11.2112 4.61611 10.8212L2.49611 8.69122C2.10611 8.30122 2.10611 7.67122 2.49611 7.28122C2.88611 6.89122 3.51611 6.89122 3.90611 7.28122L5.32611 8.70122L8.86611 5.16122C9.24611 4.78122 9.88611 4.78122 10.2661 5.16122ZM10.2761 13.1712C10.6661 13.5612 10.6661 14.1912 10.2761 14.5812L6.04611 18.8312C5.65611 19.2212 5.02611 19.2212 4.62611 18.8312L2.49611 16.6912C2.10611 16.3012 2.10611 15.6712 2.49611 15.2812C2.88611 14.8912 3.51611 14.8912 3.90611 15.2812L5.32611 16.7012L8.86611 13.1612C9.24611 12.7812 9.88611 12.7812 10.2761 13.1712Z" fill="#BBBFC6"/>
</svg>
